<?xml version="1.0" encoding="UTF-8" standalone="no"?>
<!-- Created with Inkscape (http://www.inkscape.org/) -->

<svg
   id="svg3857"
   height="53.149609"
   gorn="0"
   version="1.0"
   width="38.976379"
   sodipodi:docname="MicroSD.svg"
   inkscape:version="1.1.2 (0a00cf5339, 2022-02-04)"
   xmlns:inkscape="http://www.inkscape.org/namespaces/inkscape"
   xmlns:sodipodi="http://sodipodi.sourceforge.net/DTD/sodipodi-0.dtd"
   xmlns="http://www.w3.org/2000/svg"
   xmlns:svg="http://www.w3.org/2000/svg"
   xmlns:rdf="http://www.w3.org/1999/02/22-rdf-syntax-ns#"
   xmlns:cc="http://creativecommons.org/ns#"
   xmlns:dc="http://purl.org/dc/elements/1.1/">
  <sodipodi:namedview
     id="namedview100"
     pagecolor="#ffffff"
     bordercolor="#666666"
     borderopacity="1.0"
     inkscape:pageshadow="2"
     inkscape:pageopacity="0.0"
     inkscape:pagecheckerboard="0"
     showgrid="false"
     inkscape:zoom="15.20237"
     inkscape:cx="19.503538"
     inkscape:cy="25.752564"
     inkscape:window-width="1846"
     inkscape:window-height="1016"
     inkscape:window-x="0"
     inkscape:window-y="0"
     inkscape:window-maximized="1"
     inkscape:current-layer="SecureDigital_micro"
     showguides="false" />
  <desc
     id="desc2">
    <referenceFile>SecureDigitalCard_Micro.svg</referenceFile>
  </desc>
  <defs
     id="defs3859">
    <linearGradient
       x2="625.27094"
       id="linearGradient5808"
       x1="629.50787"
       y2="100.06479"
       gradientTransform="matrix(1.3800506,0,0,1.3800506,97.869392,-177.92918)"
       href="#aigrd13"
       y1="67.165855"
       gradientUnits="userSpaceOnUse" />
    <linearGradient
       x2="59.021"
       id="aigrd13"
       x1="59.021"
       y2="122.7236"
       y1="122.7236"
       gradientUnits="userSpaceOnUse">
      <stop
         id="stop2321"
         style="stop-color:#FFFFE1"
         offset="0" />
      <stop
         id="stop2323"
         style="stop-color:#ffec00;stop-opacity:1;"
         offset="1" />
    </linearGradient>
  </defs>
  <metadata
     id="metadata3862">
    <rdf:RDF>
      <cc:Work
         rdf:about="">
        <dc:format>image/svg+xml</dc:format>
        <dc:type
           rdf:resource="http://purl.org/dc/dcmitype/StillImage" />
      </cc:Work>
    </rdf:RDF>
  </metadata>
  <g
     transform="translate(-424.34234,122.70727)"
     id="g97">
    <g
       id="g86"
       transform="matrix(0.6100536,0,0,0.6115879,522.9194,273.63798)">
      <g
         id="SecureDigital_micro"
         gorn="0.3.0.0.0.0.0">
        <path
           id="path6599"
           gorn="0.3.0.0.0.0.0.0"
           d="m -100.3669,-647.33051 c 0.783222,0.40086 1.721035,1.13622 2.084055,1.63412 0.642693,0.88155 0.596958,1.22652 0.575033,13.14562 l -0.117003,63.61348 c -0.005,2.6958 -0.656818,5.62158 -2.811205,7.05654 l -1.08945,0.72564 h -24.49069 c -26.65947,0 -26.04283,0.0407 -27.24684,-1.79688 -0.53354,-0.8143 -0.59228,-1.99905 -0.70306,-14.17715 l -0.12087,-13.28862 -7.30061,-7.51811 v -4.37399 -4.374 h 1.59185 c 2.04821,0 2.25565,-0.38363 2.25565,-4.17085 v -2.93051 l -3.64184,-3.81809 0.0808,-13.21669 c 0.0736,-12.02576 0.13403,-13.33742 0.67065,-14.55657 1.1764,-2.67267 -0.9164,-2.49622 30.78473,-2.59518 l 28.05469,-0.0876 z"
           style="fill:#000000" />
        <g
           transform="matrix(1.061311,0,0,1.118519,17.451107,72.140271)"
           id="g81">
          <g
             id="g79"
             transform="translate(7.4921797,22.127177)">
            <g
               id="g77">
              <g
                 id="g8771"
                 gorn="0.3.0.0.0.0.0.1.0.0"
                 style="fill:#ffffff">
                <g
                   transform="translate(-128.51492,-1059.7545)"
                   id="g18">
                  <g
                     id="g16">
                    <g
                       id="g14">
                      <g
                         id="g8725"
                         gorn="0.3.0.0.0.0.0.1.0.0.0.0.0"
                         style="overflow:visible;fill:#ffffff">
                        <title
                           id="title8727">シート.61</title>
                        <path
                           id="path8729"
                           gorn="0.3.0.0.0.0.0.1.0.0.0.0.0.1"
                           d="m 6.72,454.2 c 0.04,-1.999 -1.433,-3.653 -3.288,-3.696 -1.856,-0.042 -3.393,1.544 -3.432,3.542 -0.001,0.052 -0.001,0.103 0,0.154 -0.04,1.998 1.433,3.653 3.288,3.695 1.855,0.042 3.393,-1.543 3.432,-3.542 0.001,-0.05 0.001,-0.101 0,-0.153 z m -1.89,0 c 0,-0.81 -0.656,-1.466 -1.465,-1.466 -0.81,0 -1.466,0.656 -1.466,1.466 v 0 c 0,0.81 0.656,1.465 1.466,1.465 0.809,0 1.465,-0.655 1.465,-1.465 z"
                           style="fill:#ffffff" />
                      </g>
                    </g>
                  </g>
                </g>
                <g
                   transform="translate(-143.33592,-1064.5802)"
                   id="g27">
                  <g
                     id="g25">
                    <g
                       id="g23">
                      <g
                         id="g8731"
                         gorn="0.3.0.0.0.0.0.1.0.0.1.0.0"
                         style="overflow:visible;fill:#ffffff">
                        <title
                           id="title8733">シート.58</title>
                        <circle
                           cy="456.612"
                           id="ellipse8735"
                           gorn="0.3.0.0.0.0.0.1.0.0.1.0.0.1"
                           style="fill:#ffffff"
                           cx="1.206"
                           r="1.206" />
                      </g>
                    </g>
                  </g>
                </g>
                <g
                   transform="translate(-153.54092,-1055.0862)"
                   id="g36">
                  <g
                     id="g34">
                    <g
                       id="g32">
                      <g
                         id="g8737"
                         gorn="0.3.0.0.0.0.0.1.0.0.2.0.0"
                         style="overflow:visible;fill:#ffffff">
                        <title
                           id="title8739">シート.60</title>
                        <path
                           id="path8741"
                           gorn="0.3.0.0.0.0.0.1.0.0.2.0.0.1"
                           d="m 4.88,457.82 h 0.81 v -9.109 c 0.26,-0.611 1.45,-0.611 1.75,0.08 v 8.949 h 2.2 v -9.93 c 0,-2.27 -4.08,-2.391 -4.87,-1.17 C 4.05,445.381 0,445.49 0,447.78 v 9.92 h 2.14 v -8.94 c 0.3,-0.689 1.46,-0.689 1.71,-0.08 v 9.101 h 0.79 z"
                           style="fill:#ffffff" />
                      </g>
                    </g>
                  </g>
                </g>
                <g
                   transform="translate(-143.33592,-1059.4098)"
                   id="g46">
                  <g
                     id="g44">
                    <g
                       id="g42">
                      <g
                         id="g8743"
                         gorn="0.3.0.0.0.0.0.1.0.0.3.0.0"
                         style="overflow:visible;fill:#ffffff">
                        <title
                           id="title8745">シート.49</title>
                        <path
                           id="path8747"
                           gorn="0.3.0.0.0.0.0.1.0.0.3.0.0.1"
                           d="m 2.41,454.11 z m 0,0 c 0.032,-0.666 -0.48,-1.232 -1.146,-1.264 -0.665,-0.033 -1.231,0.48 -1.264,1.146 -0.002,0.039 -0.002,0.078 0,0.117 v 3.709 h 2.41 z"
                           style="fill:#ffffff" />
                        <path
                           id="path8749"
                           gorn="0.3.0.0.0.0.0.1.0.0.3.0.0.2"
                           d="m 2.41,454.11 v 0 m 0,0 c 0.032,-0.666 -0.48,-1.232 -1.146,-1.264 -0.665,-0.033 -1.231,0.48 -1.264,1.146 -0.002,0.039 -0.002,0.078 0,0.117 v 3.709 h 2.41 v -3.708"
                           style="fill:#ffffff" />
                      </g>
                    </g>
                  </g>
                </g>
                <g
                   transform="translate(-140.75092,-1059.7545)"
                   id="g55">
                  <g
                     id="g53">
                    <g
                       id="g51">
                      <g
                         id="g8751"
                         gorn="0.3.0.0.0.0.0.1.0.0.4.0.0"
                         style="overflow:visible;fill:#ffffff">
                        <title
                           id="title8753">シート.67</title>
                        <path
                           id="path8755"
                           gorn="0.3.0.0.0.0.0.1.0.0.4.0.0.1"
                           d="M 4.83,450.65 H 3.27 v 0.029 c -2.03,0.255 -3.461,2.053 -3.198,4.015 0.229,1.707 1.681,3.015 3.458,3.116 l 1.3,0.01 c 0.509,-0.003 0.961,-0.283 1.13,-0.7 0.221,-0.547 -0.11,-1.146 -0.738,-1.337 -0.088,-0.027 -0.179,-0.045 -0.271,-0.053 l -0.12,-0.01 H 3.54 c -0.861,-0.273 -1.326,-1.152 -1.037,-1.963 0.177,-0.497 0.608,-0.876 1.147,-1.008 h 1.18 c 0.667,0 1.208,-0.471 1.208,-1.05 0,-0.579 -0.541,-1.049 -1.208,-1.049 z"
                           style="fill:#ffffff" />
                      </g>
                    </g>
                  </g>
                </g>
                <g
                   transform="translate(-134.54692,-1059.7545)"
                   id="g65">
                  <g
                     id="g63">
                    <g
                       id="g61">
                      <g
                         id="g8757"
                         gorn="0.3.0.0.0.0.0.1.0.0.5.0.0"
                         style="overflow:visible;fill:#ffffff">
                        <title
                           id="title8759">シート.62</title>
                        <path
                           id="path8761"
                           gorn="0.3.0.0.0.0.0.1.0.0.5.0.0.1"
                           d="m 3.77,453.32 z m 2.02,0.571 c 0.325,-1.408 -0.504,-2.824 -1.853,-3.164 -0.33,-0.084 -0.673,-0.096 -1.008,-0.037 -1.367,-0.238 -2.662,0.726 -2.891,2.154 -0.014,0.084 -0.023,0.17 -0.029,0.256 L 0,453.27 v 4.551 h 2.01 v -0.35 -1.631 -2.52 c -0.026,-0.434 0.345,-0.805 0.829,-0.829 0.484,-0.024 0.899,0.308 0.927,0.741 10e-4,0.029 10e-4,0.059 0,0.088 l 0.005,0.57 H 5.79 Z"
                           style="fill:#ffffff" />
                        <path
                           id="path8763"
                           gorn="0.3.0.0.0.0.0.1.0.0.5.0.0.2"
                           d="m 3.77,453.32 v 0 m 2.02,0.571 c 0.325,-1.408 -0.504,-2.824 -1.853,-3.164 -0.33,-0.084 -0.673,-0.096 -1.008,-0.037 -1.367,-0.238 -2.662,0.726 -2.891,2.154 -0.014,0.084 -0.023,0.17 -0.029,0.256 L 0,453.27 v 4.551 h 2.01 v -0.35 -1.631 -2.52 c -0.026,-0.434 0.345,-0.805 0.829,-0.829 0.484,-0.024 0.899,0.308 0.927,0.741 10e-4,0.029 10e-4,0.059 0,0.088 l 0.005,0.57 H 5.79"
                           style="fill:#ffffff" />
                      </g>
                    </g>
                  </g>
                </g>
                <g
                   transform="translate(-126.61192,-1061.8141)"
                   id="g74">
                  <g
                     id="g72">
                    <g
                       id="g70">
                      <g
                         id="g8765"
                         gorn="0.3.0.0.0.0.0.1.0.0.6.0.0"
                         style="overflow:visible;fill:#000000">
                        <title
                           id="title8767">シート.130</title>
                        <circle
                           cy="456.259"
                           id="ellipse8769"
                           gorn="0.3.0.0.0.0.0.1.0.0.6.0.0.1"
                           style="fill:#000000"
                           cx="1.559"
                           r="1.559" />
                      </g>
                    </g>
                  </g>
                </g>
              </g>
            </g>
          </g>
        </g>
        <path
           id="path6609"
           gorn="0.3.0.0.0.0.0.2"
           d="m -121.96094,-568.44563 c -0.84319,-0.0245 -1.57374,-0.0874 -1.62344,-0.13973 l -0.0904,-0.0952 0.18377,-0.45033 c 0.24439,-0.49826 0.36148,-1.03634 0.59564,-1.53867 0,-0.29455 0.12891,-0.32581 0.9209,-0.2233 1.10443,0.14296 4.05463,0.25305 4.48751,0.16747 l 0.40385,-0.0799 v -0.20638 c 0,-0.11352 -0.11103,-0.26486 -0.24675,-0.33632 -0.56543,-0.37767 -0.6697,-0.29246 -1.79463,-0.71817 -0.70524,-0.22073 -1.24226,-0.58843 -1.56894,-0.94006 -0.40595,-0.43696 -0.55696,-0.74307 -0.55696,-1.12905 l 0.144,-0.39379 0.23436,-0.38922 c 0.22969,-0.2596 0.5305,-0.49959 0.62049,-0.49959 0.83514,-0.39007 1.76182,-0.48812 2.67493,-0.589 1.57855,-0.14563 6.08642,-0.26096 6.08642,-0.15572 l -0.38383,1.32093 -2.17229,8.3e-4 c -2.3314,8.9e-4 -4.20528,0.17375 -4.448,0.4103 -0.17084,0.16648 -0.13189,0.45476 0.10417,0.45476 1.05302,0.45903 2.17919,0.70402 3.26271,1.07169 l 1.04447,0.48338 0.72846,0.78911 0.15709,0.84221 -0.15709,0.81461 -0.45545,0.62625 -0.58636,0.46072 -0.6001,0.29602 -0.65246,0.10289 -2.38951,0.0439 c -1.31423,0.0241 -3.0794,0.0239 -3.92261,-6.2e-4 z m 10.14181,-3.04263 0.13708,-0.007 c 0.79216,-0.042 2.57885,-0.32074 2.87871,-0.44907 0.94851,-0.40592 1.21482,-0.55347 1.49252,-0.82685 l 0.31695,-0.31204 0.0916,-0.34435 -0.0916,-0.37194 c 1.39065,-0.22553 2.70838,-0.78036 4.09616,-1.00497 l 0.42236,-0.0617 0.29046,0.15772 c 0.43433,0.23587 1.09412,0.90317 1.27885,1.29341 0.19908,0.42057 0.20934,0.91905 0.026,1.26222 -0.17727,0.33182 -1.17102,1.36816 -1.51547,1.58041 -0.32291,0.19899 -1.27968,0.69544 -1.58256,0.82116 -0.75531,0.26437 -1.5167,0.57711 -2.30298,0.72455 -0.94073,0.1323 -1.87852,0.28655 -2.81758,0.43125 -0.40367,0.0619 -1.37709,0.1125 -2.16315,0.1125 h -1.42919 z m 4.45231,-2.57653 -0.26697,-0.28216 c 2.91227,-1.34101 2.57136,-1.32096 3.02715,-1.37104 0.19918,0 0.90307,0.31271 0.90179,0.40536 -0.54557,0.15867 -3.40517,1.48004 -3.66197,1.24784 z m -3.13633,-0.77519 0.45161,-1.38691 0.89827,0.01 c 0.49403,0.005 1.3424,0.0707 1.88525,0.14495 l 0.98698,0.13501 -2.02411,1.32818 z"
           style="fill:#ffffff;stroke-width:0.870301" />
        <path
           stroke-opacity="1"
           id="path6611"
           fill="#ffffff"
           gorn="0.3.0.0.0.0.0.3"
           d="m -143.67453,-579.89901 -5.43103,-0.0598 2.86472,7.99734 z"
           stroke="none"
           style="fill-rule:evenodd;stroke-linecap:butt;stroke-linejoin:miter"
           fill-opacity="1"
           stroke-width="1" />
        <text
           xml:space="preserve"
           style="font-style:normal;font-weight:normal;font-size:17.4629px;line-height:1.25;font-family:sans-serif;fill:#000000;fill-opacity:1;stroke:none;stroke-width:1.63714"
           x="-110.826"
           y="-629.22076"
           id="text995"
           transform="scale(1.0012567,0.99874487)"><tspan
             sodipodi:role="line"
             id="tspan993"
             style="font-style:normal;font-variant:normal;font-weight:normal;font-stretch:normal;font-size:17.4629px;font-family:OCRABold;-inkscape-font-specification:OCRABold;text-align:end;text-anchor:end;fill:#ffffff;stroke-width:1.63714"
             x="-110.826"
             y="-629.22076">Chon</tspan><tspan
             sodipodi:role="line"
             style="font-style:normal;font-variant:normal;font-weight:normal;font-stretch:normal;font-size:17.4629px;font-family:OCRABold;-inkscape-font-specification:OCRABold;text-align:end;text-anchor:end;fill:#ffffff;stroke-width:1.63714"
             x="-110.826"
             y="-606.68951"
             id="tspan7396">OS</tspan></text>
      </g>
    </g>
  </g>
</svg>
